<?xml version="1.0" standalone="no"?>
<!DOCTYPE svg PUBLIC "-//W3C//DTD SVG 20010904//EN"
 "http://www.w3.org/TR/2001/REC-SVG-20010904/DTD/svg10.dtd">
<svg version="1.0" xmlns="http://www.w3.org/2000/svg"
 width="304.000000pt" height="381.000000pt" viewBox="0 0 304.000000 381.000000"
 preserveAspectRatio="xMidYMid meet">

<g transform="translate(0.000000,381.000000) scale(0.100000,-0.100000)"
fill="#000000" stroke="none">
<path d="M381 3773 c-6 -21 -11 -48 -11 -61 0 -12 -6 -25 -13 -28 -17 -6 -22
-190 -6 -258 26 -118 42 -173 60 -206 20 -39 99 -224 99 -234 0 -15 123 -257
134 -263 29 -17 48 -62 41 -94 -17 -74 -9 -104 39 -154 25 -26 46 -51 46 -56
0 -5 15 -26 33 -46 32 -39 44 -56 72 -106 15 -26 15 -35 1 -104 -23 -107 -20
-173 7 -173 5 0 29 16 53 35 38 32 42 39 34 60 -13 35 -7 31 22 -13 14 -20 38
-44 54 -52 31 -15 64 -49 64 -65 0 -5 -5 -3 -10 5 -5 8 -10 11 -10 5 0 -16 52
-100 86 -137 37 -42 132 -118 146 -118 6 0 26 -11 44 -25 18 -14 43 -25 56
-25 18 0 20 -2 8 -10 -12 -8 -10 -9 10 -8 25 1 109 -37 122 -56 3 -5 35 -13
71 -17 36 -4 85 -17 109 -29 l44 -20 46 -168 c62 -221 68 -256 75 -399 l6
-122 56 -34 c210 -127 329 -202 354 -223 17 -14 51 -35 76 -46 25 -12 51 -24
56 -26 6 -3 2 3 -7 14 -70 81 -130 448 -109 667 6 62 11 140 11 173 0 47 5 66
20 84 11 13 20 24 20 26 0 2 -13 22 -29 46 -16 24 -32 60 -36 80 -9 48 19 143
84 280 27 57 56 126 66 153 10 28 21 55 25 60 4 6 15 63 25 128 14 93 15 126
6 160 -6 23 -20 87 -31 142 -44 222 -101 410 -157 520 -11 22 -24 55 -28 73
-4 18 -13 36 -20 38 -13 5 -32 47 -54 116 -10 30 -9 43 5 75 27 63 30 68 48
71 23 5 73 -51 81 -91 4 -17 12 -38 18 -46 7 -7 19 -57 27 -110 l16 -96 54 -3
c78 -5 119 -17 172 -52 44 -30 51 -31 140 -29 51 1 126 -1 166 -6 l72 -8 0
422 0 421 -579 0 -578 0 19 -38 c10 -22 26 -67 35 -102 17 -67 46 -122 137
-259 51 -76 55 -87 50 -123 -4 -21 -3 -38 2 -37 20 3 24 -2 15 -20 -8 -15 -7
-20 5 -25 8 -3 12 -10 9 -16 -3 -5 1 -10 10 -10 9 0 19 9 22 20 3 11 9 20 13
20 8 0 74 -102 107 -165 33 -65 110 -301 139 -429 16 -72 13 -218 -5 -240 -5
-6 -11 -15 -13 -21 -1 -5 -8 -9 -14 -9 -6 1 -9 -7 -7 -17 3 -11 0 -19 -6 -19
-6 0 -11 5 -11 10 0 6 -5 10 -11 10 -6 0 -8 -7 -5 -16 4 -10 -3 -23 -16 -35
-28 -22 -38 -24 -38 -5 0 8 -10 16 -23 20 -30 7 -80 53 -72 66 3 5 -1 20 -9
32 -9 12 -16 30 -16 38 0 9 -10 26 -22 37 -13 11 -30 30 -38 41 -9 12 -29 23
-44 26 -36 7 -44 15 -26 26 11 7 5 10 -22 10 -20 0 -40 4 -43 10 -10 16 -111
41 -152 38 l-38 -3 85 -56 c47 -31 95 -59 108 -63 12 -4 27 -16 32 -27 9 -16
7 -19 -9 -19 -10 0 -18 -6 -17 -14 0 -8 -3 -15 -8 -15 -5 1 -12 -3 -15 -8 -3
-5 -25 -13 -49 -19 -37 -10 -45 -9 -64 7 -11 11 -25 19 -30 19 -5 0 -6 5 -3
10 3 6 2 10 -4 10 -6 0 -8 7 -5 15 4 8 1 15 -6 15 -20 0 -70 -34 -70 -47 0 -7
-3 -13 -8 -13 -4 0 -18 -18 -32 -39 -19 -32 -29 -39 -49 -36 -15 2 -51 7 -81
10 -30 3 -65 8 -76 11 -16 4 -30 -3 -53 -28 -31 -32 -32 -33 -47 -13 -11 14
-13 32 -9 60 14 85 13 231 -1 290 -21 89 -18 122 11 149 51 47 81 40 160 -37
22 -21 59 -47 81 -58 41 -19 43 -19 125 2 94 23 235 92 296 144 49 42 58 82
39 175 -13 61 -13 66 5 86 28 30 24 36 -18 29 -36 -6 -37 -5 -19 9 11 9 24 16
30 16 5 0 6 3 2 8 -4 4 -24 7 -44 8 -21 0 -50 7 -67 14 -26 11 -36 10 -75 -8
-60 -27 -187 -49 -202 -34 -7 7 6 20 48 44 33 18 63 32 68 30 5 -2 17 5 27 14
12 11 29 15 51 11 40 -6 68 7 68 32 0 22 -28 29 -140 37 -77 6 -103 0 -220
-54 -46 -20 -92 -53 -86 -59 3 -3 17 4 33 14 32 23 88 40 79 24 -8 -12 -65
-41 -81 -41 -20 0 -102 -83 -126 -128 -18 -33 -20 -45 -11 -54 7 -7 12 -20 12
-30 0 -17 33 -42 42 -32 3 2 3 -6 1 -20 -7 -34 -33 -55 -73 -58 -29 -3 -36 1
-49 27 -8 17 -21 35 -29 41 -10 7 -13 19 -9 36 6 22 2 27 -26 38 -17 6 -39 16
-49 20 -11 6 -20 4 -28 -4 -11 -15 -22 -15 -54 -1 -12 5 -21 3 -26 -6 -6 -8
-30 -14 -67 -14 -32 -1 -66 -5 -76 -9 -9 -5 -26 -6 -37 -3 -11 3 -35 0 -53 -6
-96 -31 -114 -42 -127 -71 -7 -17 -28 -50 -47 -72 -23 -29 -31 -47 -26 -59 4
-12 3 -16 -4 -12 -18 11 -40 71 -38 102 1 16 -4 35 -11 42 -6 7 -12 29 -12 49
0 20 -9 48 -19 63 -69 94 -103 203 -103 330 0 91 8 127 46 206 13 28 24 55 24
60 0 6 16 25 35 44 19 19 35 38 35 42 0 15 48 10 64 -6 19 -19 26 -19 26 1 0
12 7 15 27 11 20 -4 34 2 56 24 l29 29 -241 0 -240 0 -10 -37z m1522 -460 c-7
-2 -19 -2 -25 0 -7 3 -2 5 12 5 14 0 19 -2 13 -5z m90 -140 c-7 -2 -19 -2 -25
0 -7 3 -2 5 12 5 14 0 19 -2 13 -5z m-125 -96 c-7 -14 -13 -17 -16 -9 -6 19 6
44 18 37 7 -4 6 -14 -2 -28z m213 -33 c29 -83 25 -111 -24 -158 -23 -23 -74
-56 -112 -75 -189 -92 -270 -86 -360 23 -39 48 -44 71 -16 85 15 8 20 7 24 -8
5 -20 38 -30 129 -38 43 -4 76 1 140 21 46 15 88 31 93 37 6 5 19 16 29 23 17
12 18 16 5 44 -13 30 -49 46 -49 22 0 -5 -9 -10 -19 -10 -11 0 -26 -7 -35 -15
-8 -8 -18 -15 -22 -15 -4 0 7 14 24 31 18 17 32 35 32 39 0 5 19 7 43 6 49 -3
69 2 61 16 -7 11 15 29 30 25 5 -2 18 -25 27 -53z m-1373 -280 c-3 -14 -5 -12
-10 9 -3 19 -2 25 4 19 6 -6 8 -18 6 -28z m613 -202 c-27 -51 -145 -119 -262
-152 -65 -18 -75 -18 -89 -5 -9 8 -19 13 -21 11 -2 -2 -15 7 -29 20 -23 22
-23 24 -5 24 12 0 31 -7 43 -15 17 -12 30 -14 55 -7 21 6 40 6 50 0 11 -6 17
-5 17 2 0 5 6 10 13 10 7 0 22 8 33 19 11 10 31 22 45 26 13 4 29 12 36 17 7
5 17 7 23 3 6 -4 9 -3 8 2 -5 14 41 53 55 47 8 -3 17 3 21 12 4 9 9 14 12 11
3 -3 1 -14 -5 -25z m-611 -32 c0 -5 -2 -10 -4 -10 -3 0 -8 5 -11 10 -3 6 -1
10 4 10 6 0 11 -4 11 -10z m587 -59 c-8 -23 -7 -36 5 -62 10 -19 13 -40 9 -49
-14 -29 23 -132 45 -123 8 3 21 0 29 -7 8 -6 29 -10 48 -7 25 3 37 0 45 -14 7
-11 19 -19 27 -19 22 0 18 -18 -5 -25 -11 -3 -20 -15 -20 -26 0 -10 -5 -19
-11 -19 -7 0 -17 -7 -23 -16 -7 -9 -28 -19 -46 -23 -28 -5 -37 -13 -46 -41
-14 -43 -34 -51 -34 -13 -1 38 -44 71 -72 54 -10 -6 -23 -9 -28 -6 -5 3 -20 0
-35 -7 -17 -8 -29 -8 -36 -1 -14 14 -1 40 24 48 l22 8 -23 4 c-15 3 -22 10
-18 19 6 17 -15 19 -31 3 -17 -17 -35 0 -29 27 5 17 2 26 -8 30 -8 3 -12 12
-9 20 3 9 -2 14 -15 14 -22 0 -35 24 -27 51 3 9 1 20 -5 24 -8 5 -8 11 1 21 9
12 6 14 -19 14 -50 0 -46 17 6 25 50 7 90 23 212 85 41 21 76 39 77 39 1 1 -4
-12 -10 -28z m863 -61 c12 -8 11 -10 -7 -10 -12 0 -25 5 -28 10 -8 13 15 13
35 0z m-390 -10 c0 -5 -5 -10 -11 -10 -5 0 -7 5 -4 10 3 6 8 10 11 10 2 0 4
-4 4 -10z m-913 -35 c6 -14 9 -25 6 -25 -7 0 -32 33 -33 43 0 16 16 5 27 -18z
m70 9 c-3 -3 -12 -4 -19 -1 -8 3 -5 6 6 6 11 1 17 -2 13 -5z m-43 -70 c3 -8 2
-12 -4 -9 -6 3 -10 10 -10 16 0 14 7 11 14 -7z m39 -51 c5 -26 4 -26 -9 -8
-16 22 -18 35 -5 35 5 0 11 -12 14 -27z m1275 0 c28 -8 52 -18 52 -22 0 -4 9
-19 20 -32 11 -13 23 -28 28 -34 18 -22 22 -49 10 -57 -10 -6 -9 -8 3 -8 14 0
14 -5 -1 -50 -9 -28 -20 -53 -24 -57 -3 -3 -6 -15 -6 -25 0 -10 -5 -18 -11
-18 -6 0 -9 -6 -6 -14 5 -11 -24 -46 -39 -46 -3 0 -17 -12 -31 -27 -14 -16
-30 -27 -35 -25 -6 1 -16 -5 -22 -14 -14 -18 -136 -31 -136 -13 0 6 -4 7 -10
4 -5 -3 -10 -15 -10 -26 0 -22 -4 -23 -31 -9 -18 10 -18 12 -3 35 8 13 21 22
28 19 17 -6 27 41 13 55 -7 7 1 19 22 37 25 21 32 33 28 53 -3 16 2 34 14 50
23 28 25 79 4 87 -8 3 -32 -7 -52 -23 -21 -15 -49 -34 -61 -41 -22 -13 -23
-12 -17 10 8 23 7 23 -14 4 -11 -11 -21 -16 -21 -12 0 7 -60 -23 -70 -35 -5
-6 -73 -22 -137 -33 -19 -3 -33 -1 -33 4 0 12 78 70 94 70 6 0 17 9 24 20 7
11 18 20 26 20 7 0 19 7 26 15 7 8 17 12 24 8 6 -3 8 -3 4 2 -5 5 1 13 12 19
10 6 50 32 87 57 125 86 129 86 251 52z m-358 -60 c-1 -19 -29 -43 -51 -43
-24 0 -24 0 6 25 31 25 45 31 45 18z m-777 -145 c4 -10 7 -10 18 0 16 15 29
16 29 0 0 -6 -3 -8 -7 -5 -3 4 -12 2 -19 -4 -10 -8 -19 -6 -36 5 -17 12 -19
16 -6 16 9 0 18 -6 21 -12z m84 -4 c-3 -3 -12 -4 -19 -1 -8 3 -5 6 6 6 11 1
17 -2 13 -5z m133 -30 c0 -14 -48 -15 -56 -2 -3 5 -3 15 0 23 4 11 10 11 30 2
14 -7 26 -17 26 -23z m40 -59 c0 -24 -5 -35 -15 -35 -8 0 -15 5 -15 11 0 5 5
7 10 4 19 -11 10 10 -9 25 -23 16 -18 30 10 30 15 0 19 -7 19 -35z m298 -122
c16 -18 22 -20 22 -9 0 21 26 21 34 1 4 -13 10 -14 26 -5 11 6 24 9 29 6 5 -3
26 -8 47 -12 44 -7 55 -19 52 -52 -3 -23 -21 -37 -91 -68 -37 -16 -38 -16 -61
7 -13 14 -26 35 -28 49 -2 15 -9 24 -17 22 -7 -2 -22 5 -32 14 -17 15 -24 13
-20 -8 0 -5 -3 -8 -9 -8 -5 0 -10 7 -10 15 0 8 -8 15 -17 16 -16 0 -15 1 2 8
17 7 17 9 3 17 -11 7 -13 15 -7 32 8 20 11 21 31 11 13 -7 33 -23 46 -36z"/>
<path d="M2350 3301 c0 -5 5 -13 10 -16 6 -3 10 -2 10 4 0 5 -4 13 -10 16 -5
3 -10 2 -10 -4z"/>
<path d="M2360 3211 c0 -6 5 -13 10 -16 6 -3 10 1 10 9 0 9 -4 16 -10 16 -5 0
-10 -4 -10 -9z"/>
<path d="M650 3075 c0 -8 2 -15 4 -15 2 0 6 7 10 15 3 8 1 15 -4 15 -6 0 -10
-7 -10 -15z"/>
<path d="M640 2603 c0 -5 4 -15 10 -23 11 -18 25 -7 17 15 -6 15 -27 21 -27 8z"/>
<path d="M2658 1644 c-38 -125 -44 -164 -26 -164 11 0 21 32 37 114 13 63 21
120 19 126 -2 7 -16 -28 -30 -76z"/>
<path d="M2367 1653 c-4 -3 -7 -20 -6 -37 l1 -31 8 35 c9 36 8 45 -3 33z"/>
<path d="M2571 1614 c0 -11 3 -14 6 -6 3 7 2 16 -1 19 -3 4 -6 -2 -5 -13z"/>
<path d="M2398 1169 c-10 -5 -18 -15 -18 -21 0 -7 5 -6 14 1 8 7 27 16 43 21
27 8 27 8 3 9 -14 0 -33 -4 -42 -10z"/>
<path d="M1170 641 c0 -5 7 -12 16 -15 14 -5 15 -4 4 9 -14 17 -20 19 -20 6z"/>
<path d="M1213 583 c-3 -10 -8 -22 -11 -27 -2 -4 5 -5 17 -1 23 7 28 -4 9 -23
-21 -21 9 -32 40 -16 14 7 28 12 30 9 2 -2 -5 -23 -16 -48 -19 -43 -19 -44 -1
-40 10 3 17 9 14 13 -3 5 -2 10 3 12 4 1 18 18 30 35 22 31 22 53 1 53 -5 0
-27 11 -49 25 -47 30 -59 31 -67 8z"/>
<path d="M2150 451 c8 -6 23 -11 33 -11 10 0 28 -6 40 -14 30 -19 97 -30 97
-16 0 5 15 9 33 9 l32 -2 -30 -5 -30 -4 40 -12 c29 -8 39 -17 39 -31 0 -22
-61 -122 -87 -144 -22 -18 -23 -45 -1 -37 10 4 14 1 12 -6 -4 -12 85 -78 104
-78 4 0 8 -7 8 -15 0 -8 -7 -15 -15 -15 -8 0 -15 6 -15 13 0 7 -31 30 -70 50
-46 24 -70 32 -70 23 0 -28 -91 -54 -161 -46 -42 4 -46 7 -39 25 4 12 24 32
44 45 35 25 54 50 36 50 -5 0 -15 -7 -24 -15 -19 -19 -26 -19 -26 1 0 21 -45
11 -128 -28 -35 -16 -72 -28 -83 -25 -60 16 41 -37 140 -73 l64 -24 -36 -33
-37 -33 288 1 c176 0 279 4 265 9 -29 12 -38 31 -57 125 -9 43 -20 82 -24 85
-4 3 -7 10 -7 15 -4 66 -21 134 -41 158 -13 16 -24 33 -24 39 0 6 -10 8 -22 5
-22 -6 -205 8 -242 19 -17 4 -18 3 -6 -5z m315 -218 c7 -31 9 -30 -39 -39
l-39 -7 7 34 c3 18 11 36 17 40 20 12 47 -2 54 -28z m-72 -180 c-7 -2 -19 -2
-25 0 -7 3 -2 5 12 5 14 0 19 -2 13 -5z"/>
<path d="M2210 400 c0 -5 7 -10 16 -10 8 0 12 5 9 10 -3 6 -10 10 -16 10 -5 0
-9 -4 -9 -10z"/>
<path d="M3000 171 c0 -10 30 -24 37 -17 3 3 2 9 -2 15 -8 13 -35 15 -35 2z"/>
<path d="M1065 66 c-58 -66 -59 -66 -43 -66 8 0 29 20 47 45 33 47 31 60 -4
21z"/>
<path d="M2690 10 c0 -5 5 -10 10 -10 6 0 10 5 10 10 0 6 -4 10 -10 10 -5 0
-10 -4 -10 -10z"/>
</g>
</svg>
